<svg width="217" height="60" viewBox="0 0 217 60" fill="none" xmlns="http://www.w3.org/2000/svg">
<g clip-path="url(#clip0)">
<path d="M9.68004 42.058C9.68004 42.058 8.20139 40.7205 7.06072 38.2989C5.76643 35.9552 5.55014 33.9761 5.55014 33.9761C5.75171 30.128 9.1421 30.6864 9.1421 30.6864L14.8466 32.7571C15.8274 33.1713 16.1195 33.6949 16.1195 33.6949C16.1195 33.6949 16.3732 34.2385 16.1321 35.2738L14.4588 41.0946C14.4588 41.0946 12.9185 44.1582 9.68004 42.058ZM9.96055 25.1801C9.96055 25.1801 6.56333 24.666 7.56391 20.9444C7.56391 20.9444 8.38309 19.129 10.3402 17.2987C12.1746 15.3479 13.9952 14.5302 13.9952 14.5302C17.7265 13.5321 18.2417 16.9206 18.2417 16.9206L18.0298 22.9707C17.9384 24.0306 17.529 24.4693 17.529 24.4693C17.529 24.4693 17.0893 24.8779 16.0267 24.9692L9.96055 25.1801ZM27.0433 12.4134C27.0433 12.4134 29.0278 12.6302 31.3776 13.9199C33.8052 15.058 35.1468 16.5315 35.1468 16.5315C37.2518 19.7629 34.1805 21.2991 34.1805 21.2991L28.3448 22.9678C27.3069 23.2082 26.7619 22.9552 26.7619 22.9552C26.7619 22.9552 26.2364 22.6644 25.8218 21.685L23.7451 15.9956C23.7451 15.9956 23.1855 12.614 27.0433 12.4134ZM30.4664 46.5765C30.4664 46.5765 28.7333 47.5649 26.0721 47.8982C23.4375 48.4016 21.4835 47.9952 21.4835 47.9952C17.8757 46.616 19.4558 43.5722 19.4558 43.5722L23.1935 38.801C23.2187 38.7721 23.2426 38.7505 23.2674 38.7233L18.6024 34.3126L18.59 34.3002C16.1469 31.8633 16.1467 27.8986 18.59 25.4617C21.0333 23.0252 25.0085 23.0248 27.4518 25.4617C27.4518 25.4617 29.2297 27.3324 31.847 30.0852C31.8909 30.0442 31.9299 30.0037 31.979 29.961L36.7629 26.2329C36.7629 26.2329 39.8145 24.6572 41.1975 28.2547C41.1975 28.2547 41.6049 30.204 41.1008 32.8314C40.7655 35.486 39.7754 37.2144 39.7754 37.2144C39.5821 37.4524 39.3892 37.6456 39.1976 37.819C40.2278 38.9022 41.2662 39.9945 42.2869 41.069C42.3547 40.9521 42.4272 40.8373 42.4926 40.7202C42.9374 40.4844 43.5521 40.6264 43.5521 40.6264L43.7994 40.6551L44.0142 40.2809L43.8654 40.1129C43.5013 39.8271 43.3204 39.4391 43.2449 39.2368C43.3987 38.9019 43.5441 38.5641 43.6803 38.2232C44.0917 37.934 44.7206 37.9975 44.7206 37.9975L44.9698 37.9958L45.1353 37.5977L44.9674 37.4493C44.568 37.21 44.3392 36.8455 44.2401 36.6543C44.35 36.3053 44.4504 35.954 44.5424 35.601C44.9142 35.2589 45.5496 35.2432 45.5496 35.2432L45.7965 35.2103L45.911 34.7948L45.7257 34.6685C45.297 34.4805 45.0233 34.1444 44.9014 33.968C44.9664 33.6101 45.0225 33.2517 45.0689 32.892C45.3933 32.5032 46.0261 32.4076 46.0261 32.4076L46.2664 32.3436L46.3281 31.9171L46.1279 31.8152C45.678 31.6816 45.3646 31.3809 45.222 31.2218C45.2407 30.8599 45.2508 30.4974 45.253 30.1352C45.5262 29.708 46.1426 29.5346 46.1426 29.5346L46.3733 29.4404L46.3803 29.0103L46.1687 28.9338C45.7077 28.8582 45.3585 28.6 45.1968 28.4601C45.1703 28.0971 45.1351 27.7348 45.0908 27.3734C45.3088 26.9179 45.8969 26.6691 45.8969 26.6691L46.1134 26.5476L46.0663 26.119L45.8477 26.0703C45.3812 26.0521 45.0026 25.8416 44.8247 25.7217C44.7534 25.3642 44.6723 25.0083 44.5828 24.6542C44.743 24.1759 45.2925 23.8575 45.2925 23.8575L45.493 23.7094L45.392 23.2904L45.1694 23.269C44.7063 23.3095 44.3058 23.1497 44.1126 23.0529C43.9966 22.7058 43.8707 22.3616 43.7366 22.0188C43.8371 21.5262 44.3405 21.143 44.3405 21.143L44.52 20.9716L44.3675 20.5689L44.1437 20.575C43.6906 20.6732 43.2749 20.5645 43.0699 20.4935C42.9103 20.1633 42.7428 19.8371 42.5653 19.5133C42.6042 19.0122 43.0549 18.569 43.0549 18.569L43.2115 18.3767L43.0094 17.9956L42.7873 18.0306C42.3499 18.1847 41.9218 18.1286 41.711 18.0834C41.5119 17.7777 41.305 17.4758 41.0896 17.1789C41.0618 16.6747 41.4555 16.1768 41.4555 16.1768L41.5868 15.9657L41.3382 15.6136L41.1233 15.6754C40.7045 15.8846 40.2698 15.8808 40.0563 15.8621C39.823 15.5862 39.581 15.3153 39.3322 15.0489C39.2378 14.5512 39.5684 14.0032 39.5684 14.0032L39.6719 13.7772L39.3809 13.4589L39.1751 13.5471C38.7857 13.8079 38.3523 13.858 38.1393 13.8655C37.87 13.618 37.5973 13.3788 37.3188 13.1472C37.1638 12.6652 37.4226 12.0818 37.4226 12.0818L37.4972 11.8455L37.1682 11.5654L36.9753 11.6796C36.6238 11.9837 36.2047 12.0886 35.9918 12.1242C35.6923 11.91 35.3884 11.7052 35.0807 11.5081C34.8709 11.0501 35.0528 10.4447 35.0528 10.4447L35.0968 10.2005L34.7357 9.9636L34.5585 10.1004C34.2501 10.446 33.8495 10.6024 33.6417 10.6641C33.3162 10.4894 32.9873 10.3227 32.6555 10.1655C32.3922 9.73782 32.4956 9.1163 32.4956 9.1163L32.5089 8.86848L32.1209 8.67848L31.9619 8.83701C31.6993 9.21751 31.3218 9.42242 31.1239 9.51038C30.7793 9.37802 30.4319 9.25544 30.0832 9.14049C29.7673 8.74872 29.791 8.11809 29.791 8.11809L29.7734 7.87093L29.3646 7.73097L29.2275 7.90755C29.0139 8.31935 28.6632 8.57047 28.4785 8.68146C28.1222 8.59384 27.7634 8.51515 27.4027 8.44558C27.0385 8.09689 26.9836 7.46559 26.9836 7.46559L26.9349 7.22292L26.5114 7.13495L26.3974 7.32744C26.2357 7.76525 25.9169 8.05895 25.7484 8.19131C25.3859 8.14923 25.0239 8.11627 24.6595 8.09257C24.2508 7.79358 24.1156 7.16991 24.1156 7.16991L24.0368 6.93403L23.6059 6.90039L23.5164 7.10613C23.4114 7.56166 23.13 7.89363 22.9802 8.04537C22.6162 8.04901 22.2537 8.06127 21.8903 8.08264C21.446 7.83697 21.2331 7.23435 21.2331 7.23435L21.1258 7.01171L20.6938 7.03109L20.6307 7.24593C20.5833 7.71026 20.3482 8.07386 20.218 8.24332C19.856 8.29219 19.4951 8.34983 19.1364 8.41676C18.6671 8.22759 18.3825 7.65907 18.3825 7.65907L18.2465 7.45101L17.8209 7.52472L17.786 7.74571C17.7976 8.20936 17.6112 8.59698 17.5029 8.78334C17.1473 8.87743 16.7942 8.98047 16.444 9.09261C15.9576 8.96058 15.6059 8.43647 15.6059 8.43647L15.4452 8.24697L15.0326 8.37319L15.026 8.59698C15.0947 9.05285 14.9617 9.45886 14.8773 9.65813C14.5357 9.79729 14.196 9.94454 13.8603 10.1008C13.3633 10.0294 12.9502 9.55527 12.9502 9.55527L12.7671 9.38681L12.3733 9.56371L12.394 9.78701C12.5204 10.2308 12.438 10.651 12.3802 10.8591C12.0599 11.039 11.7433 11.2273 11.4301 11.4241C10.9272 11.4175 10.4555 10.9966 10.4555 10.9966L10.253 10.853L9.88416 11.0779L9.93283 11.2963C10.1154 11.724 10.086 12.1537 10.0534 12.3662C9.76093 12.5827 9.47294 12.8072 9.18909 13.0404C8.68603 13.1007 8.16137 12.7392 8.16137 12.7392L7.94247 12.6218L7.60498 12.8906L7.68155 13.1018C7.91705 13.5047 7.94014 13.9373 7.93516 14.1511C7.81873 14.2624 7.70248 14.374 7.58837 14.4883C7.44415 14.6319 7.30324 14.7773 7.16415 14.9244C6.67244 15.0479 6.1049 14.7542 6.1049 14.7542L5.87257 14.6646L5.57212 14.9741L5.67438 15.1742C5.95743 15.5437 6.03529 15.9671 6.0567 16.1806C5.82445 16.466 5.5997 16.7553 5.384 17.0492C4.91286 17.2292 4.31774 17.0105 4.31774 17.0105L4.07627 16.9511L3.8165 17.2959L3.9425 17.481C4.26721 17.8093 4.39891 18.2173 4.44782 18.428C4.2526 18.7411 4.06524 19.0588 3.88671 19.3798C3.44244 19.6147 2.82812 19.4719 2.82812 19.4719L2.58022 19.4439L2.36683 19.8181L2.51508 19.9868C2.87864 20.2711 3.05986 20.6585 3.13459 20.8616C2.98096 21.1971 2.83622 21.535 2.69934 21.8761C2.28749 22.1647 1.65858 22.1007 1.65858 22.1007L1.41082 22.1036L1.24474 22.502L1.41385 22.6502C1.81194 22.8888 2.04032 23.2523 2.14041 23.4441C2.03019 23.7928 1.92996 24.1446 1.83666 24.4987C1.46538 24.8402 0.829774 24.8554 0.829774 24.8554L0.584019 24.8894L0.469454 25.3044L0.655186 25.4305C1.08305 25.6186 1.3569 25.954 1.47842 26.1307C1.41385 26.4882 1.35807 26.8474 1.31046 27.2082C0.98606 27.5963 0.353843 27.6908 0.353843 27.6908L0.113535 27.7555L0.0523666 28.182L0.253096 28.2842C0.701574 28.4171 1.01577 28.7173 1.15792 28.8766C1.13886 29.2391 1.12853 29.6023 1.12698 29.9648C0.854306 30.3911 0.237384 30.5647 0.237384 30.5647L0.0070746 30.6579L0 31.0894L0.211823 31.1655C0.673172 31.2412 1.02175 31.4982 1.18355 31.6393C1.20949 32.0022 1.24538 32.3643 1.28963 32.7256C1.07086 33.1811 0.482874 33.4302 0.482874 33.4302L0.265935 33.5517L0.313302 33.9801L0.533364 34.0288C0.999363 34.0463 1.3772 34.2575 1.55561 34.3766C1.62705 34.7344 1.70774 35.0907 1.79728 35.4449C1.6364 35.9234 1.08656 36.2415 1.08656 36.2415L0.887321 36.3896L0.988268 36.8087L1.21203 36.8294C1.67453 36.7893 2.07463 36.9497 2.26763 37.046C2.38371 37.3933 2.50936 37.7386 2.64379 38.08C2.54252 38.5729 2.0398 38.9563 2.0398 38.9563L1.85989 39.1279L2.01227 39.5311L2.23747 39.5237C2.68979 39.426 3.10584 39.5342 3.31002 39.6063C3.46955 39.936 3.63823 40.2624 3.81508 40.5862C3.77609 41.0867 3.32546 41.5297 3.32546 41.5297L3.16877 41.7226L3.37107 42.1034L3.59341 42.0677C4.03157 41.9144 4.4584 41.9704 4.66976 42.0156C4.86874 42.321 5.07557 42.6229 5.29097 42.9202C5.31886 43.424 4.92446 43.9225 4.92446 43.9225L4.79388 44.1329L5.04209 44.4854L5.25768 44.4229C5.67619 44.2141 6.11101 44.2183 6.32431 44.2366C6.55737 44.513 6.79934 44.7831 7.04847 45.0495C7.14285 45.5477 6.81207 46.0964 6.81207 46.0964L6.70813 46.3215L6.9993 46.6409L7.20546 46.5517C7.59568 46.2906 8.02834 46.241 8.24192 46.2336C8.51014 46.481 8.78353 46.7198 9.06121 46.9511C9.2165 47.4328 8.95791 48.0169 8.95791 48.0169L8.88334 48.2534L9.21135 48.5343L9.40468 48.4194C9.75727 48.1147 10.177 48.0098 10.3891 47.9755C10.6887 48.1884 10.9921 48.3931 11.2994 48.5899C11.5098 49.0475 11.3283 49.6547 11.3283 49.6547L11.2831 49.8983L11.6448 50.1351L11.8224 49.9979C12.1313 49.6527 12.5315 49.4967 12.7393 49.4348C13.0645 49.6093 13.3928 49.7753 13.7244 49.9322C13.9881 50.3602 13.8849 50.9828 13.8849 50.9828L13.8712 51.2306L14.2595 51.4203L14.4185 51.2617C14.682 50.8806 15.0595 50.6757 15.258 50.5887C15.6007 50.7203 15.9477 50.8437 16.2967 50.9573C16.6139 51.3493 16.5889 51.9811 16.5889 51.9811L16.6066 52.2288L17.0166 52.3681L17.1528 52.1905C17.3673 51.7787 17.7182 51.5279 17.9031 51.4172C18.259 51.504 18.6174 51.5829 18.9767 51.6529C19.3415 52.0006 19.397 52.633 19.397 52.633L19.4459 52.8765L19.8691 52.9637L19.9836 52.7706C20.1451 52.3326 20.4644 52.0387 20.6327 51.9071C20.9941 51.9491 21.3571 51.9818 21.7196 52.0054C22.1291 52.3038 22.2651 52.9291 22.2651 52.9291L22.344 53.1647L22.7746 53.1987L22.8636 52.9929C22.9693 52.536 23.2513 52.204 23.4013 52.0529C23.764 52.0492 24.1265 52.0374 24.4893 52.0156C24.9334 52.2607 25.1471 52.8643 25.1471 52.8643L25.2548 53.0877L25.6864 53.0679L25.7494 52.8521C25.7965 52.388 26.0331 52.0239 26.1637 51.8544C26.5243 51.8055 26.8845 51.7486 27.243 51.6813C27.7127 51.8703 27.9982 52.44 27.9982 52.44L28.1339 52.6487L28.5598 52.574L28.595 52.3531C28.5829 51.8887 28.7691 51.5001 28.878 51.3144C29.2322 51.2206 29.5849 51.118 29.9354 51.0061C30.4224 51.1374 30.7748 51.6623 30.7748 51.6623L30.9345 51.8524L31.3485 51.7251L31.3548 51.501C31.2862 51.0452 31.419 50.6388 31.504 50.4396C31.8451 50.3011 32.1833 50.1538 32.5187 49.9977C33.0166 50.0686 33.4302 50.5438 33.4302 50.5438L33.6134 50.7122L34.0079 50.5346L33.9858 50.3114C33.8597 49.8669 33.9418 49.4464 34.0006 49.2387C34.0808 49.1933 34.1587 49.1428 34.2384 49.0967L31.0234 46.0573C30.8612 46.2298 30.6814 46.4029 30.4664 46.5765Z" fill="#EEEDED"/>
<path d="M47.9589 57.4713C47.2065 56.7207 47.2065 55.5039 47.9589 54.7536C48.7109 54.0032 49.9313 54.0032 50.6834 54.7536C51.4358 55.5039 51.4357 56.721 50.6834 57.4713C49.9313 58.2215 48.7113 58.2215 47.9589 57.4713ZM52.059 53.2576L26.521 26.3898C24.5878 24.4617 21.454 24.4617 19.5207 26.3898C17.5875 28.3182 17.5874 31.4439 19.5207 33.3721L46.4586 58.843C48.0052 60.3858 50.5125 60.3858 52.059 58.843C53.6055 57.3008 53.6055 54.7998 52.059 53.2576Z" fill="#EEEDED"/>
<path d="M82.6473 26.7754C82.6473 27.8829 82.51 28.8722 82.2357 29.7434C81.9612 30.6145 81.5871 31.3861 81.113 32.0581C80.6516 32.7177 80.1152 33.284 79.504 33.7568C78.8929 34.2297 78.2505 34.6155 77.5769 34.9142C76.9158 35.2128 76.2423 35.4307 75.5563 35.5675C74.8827 35.7044 74.2466 35.7729 73.6479 35.7729H62.6465V30.9194H73.6479C74.2715 30.8696 74.8328 30.7452 75.3317 30.5461C75.8432 30.3345 76.2797 30.0546 76.6414 29.7061C77.0032 29.3577 77.2838 28.9407 77.4834 28.4554C77.6829 27.9576 77.7827 27.3976 77.7827 26.7754V24.5727C77.7203 23.9628 77.5894 23.4028 77.3898 22.8927C77.1903 22.3824 76.9158 21.9469 76.5665 21.5859C76.2298 21.225 75.8181 20.9451 75.3317 20.7459C74.8453 20.5344 74.284 20.4286 73.6479 20.4286H62.684C62.0354 20.4286 61.5426 20.5966 61.2058 20.9326C60.8691 21.2686 60.7007 21.7539 60.7007 22.3886V42.3437H55.8362V22.3886C55.8362 21.1442 56.0606 20.0863 56.5097 19.2152C56.9712 18.3441 57.5388 17.6409 58.2123 17.1059C58.8984 16.5708 59.6405 16.1849 60.4388 15.9485C61.2371 15.6996 61.973 15.5752 62.6465 15.5752H73.6479C74.7455 15.5752 75.7309 15.7183 76.6041 16.0045C77.4771 16.2782 78.2443 16.6516 78.9052 17.1244C79.5789 17.5849 80.1464 18.12 80.6078 18.7298C81.0819 19.3397 81.4685 19.9805 81.7679 20.6526C82.0797 21.3121 82.3042 21.9842 82.4415 22.6686C82.5787 23.3407 82.6473 23.9753 82.6473 24.5727V26.7754ZM108.878 31.4048H93.5177V26.514H108.878V31.4048ZM111.067 42.3437H93.5177C92.8441 42.3437 92.1082 42.2254 91.3099 41.989C90.5116 41.7526 89.7695 41.3667 89.0834 40.8316C88.4099 40.284 87.8423 39.5809 87.3809 38.7223C86.9318 37.8511 86.7073 36.7871 86.7073 35.5302V18.0205C86.7073 17.6845 86.7697 17.3672 86.8943 17.0686C87.0191 16.7699 87.1874 16.5085 87.3995 16.2844C87.6241 16.0605 87.8859 15.8862 88.1853 15.7618C88.4846 15.6373 88.809 15.5752 89.1583 15.5752H111.067V20.4286H91.5719V35.5302C91.5719 36.1649 91.7402 36.6502 92.0769 36.9862C92.4138 37.3223 92.9065 37.4902 93.5551 37.4902H111.067V42.3437ZM142.556 31.1435C142.556 32.7737 142.269 34.2733 141.695 35.6421C141.134 37.0111 140.354 38.1933 139.356 39.1889C138.358 40.172 137.174 40.9436 135.801 41.5037C134.43 42.0636 132.939 42.3437 131.33 42.3437H118.196C117.847 42.3437 117.522 42.2814 117.223 42.157C116.923 42.0325 116.662 41.8645 116.437 41.653C116.225 41.429 116.057 41.1676 115.932 40.8689C115.807 40.5702 115.745 40.2467 115.745 39.8983V18.0205C115.745 17.6845 115.807 17.3672 115.932 17.0686C116.057 16.7699 116.225 16.5085 116.437 16.2844C116.662 16.0605 116.923 15.8862 117.223 15.7618C117.522 15.6373 117.847 15.5752 118.196 15.5752H131.33C132.939 15.5752 134.43 15.8552 135.801 16.4152C137.174 16.9751 138.358 17.753 139.356 18.7486C140.354 19.7317 141.134 20.9139 141.695 22.2953C142.269 23.6642 142.556 25.1575 142.556 26.7754V31.1435ZM137.692 26.7754C137.692 25.8296 137.535 24.9647 137.224 24.1807C136.924 23.3966 136.494 22.7309 135.933 22.1833C135.372 21.6232 134.698 21.194 133.912 20.8953C133.139 20.5841 132.278 20.4286 131.33 20.4286H120.609V37.4902H131.33C132.278 37.4902 133.139 37.3409 133.912 37.0422C134.698 36.7312 135.372 36.3017 135.933 35.7542C136.494 35.1941 136.924 34.5284 137.224 33.7568C137.535 32.9728 137.692 32.1017 137.692 31.1435V26.7754ZM173.652 42.3437H168.786V35.7729H151.686V42.3437H146.822V28.9594C146.822 27.0056 147.158 25.2073 147.831 23.5646C148.506 21.9219 149.441 20.5094 150.639 19.3272C151.836 18.145 153.252 17.224 154.886 16.5645C156.519 15.9049 158.304 15.5752 160.237 15.5752H171.201C171.538 15.5752 171.856 15.6373 172.155 15.7618C172.454 15.8862 172.717 16.0605 172.94 16.2844C173.165 16.5085 173.339 16.7699 173.464 17.0686C173.589 17.3672 173.652 17.6845 173.652 18.0205V42.3437ZM151.686 30.9194H168.786V20.4286H160.237C160.086 20.4286 159.768 20.4535 159.283 20.5033C158.808 20.5406 158.253 20.6464 157.617 20.8205C156.993 20.9948 156.333 21.2623 155.635 21.6232C154.936 21.9842 154.294 22.482 153.707 23.1166C153.121 23.7513 152.634 24.5477 152.247 25.506C151.873 26.4518 151.686 27.6029 151.686 28.9594V30.9194ZM184.223 42.3437H179.358V15.5752H184.223V42.3437ZM215.692 34.4662C215.692 35.4244 215.567 36.2893 215.318 37.0609C215.081 37.8201 214.763 38.492 214.364 39.0769C213.965 39.6619 213.497 40.1597 212.961 40.5702C212.425 40.9809 211.87 41.3169 211.295 41.5783C210.722 41.8397 210.136 42.0325 209.537 42.157C208.951 42.2814 208.396 42.3437 207.872 42.3437H189.105V37.4902H207.872C208.807 37.4902 209.531 37.2165 210.042 36.6689C210.566 36.1213 210.828 35.3871 210.828 34.4662C210.828 34.0182 210.759 33.6075 210.622 33.2342C210.485 32.8608 210.285 32.5373 210.023 32.2634C209.774 31.9897 209.462 31.7781 209.088 31.6288C208.726 31.4794 208.321 31.4048 207.872 31.4048H196.684C195.897 31.4048 195.05 31.2678 194.139 30.9941C193.228 30.7079 192.38 30.2537 191.595 29.6314C190.82 29.0092 190.172 28.194 189.648 27.186C189.137 26.1781 188.882 24.9459 188.882 23.49C188.882 22.034 189.137 20.8081 189.648 19.8125C190.172 18.8046 190.82 17.9894 191.595 17.3672C192.38 16.7325 193.228 16.2782 194.139 16.0045C195.05 15.7183 195.897 15.5752 196.684 15.5752H213.241V20.4286H196.684C195.76 20.4286 195.037 20.7085 194.512 21.2686C194.001 21.8286 193.746 22.569 193.746 23.49C193.746 24.4233 194.001 25.1638 194.512 25.7113C195.037 26.2464 195.76 26.514 196.684 26.514H207.872H207.909C208.433 26.5265 208.988 26.6011 209.575 26.738C210.16 26.8625 210.74 27.0616 211.315 27.3353C211.9 27.6092 212.455 27.9576 212.979 28.3807C213.504 28.7914 213.965 29.2892 214.364 29.874C214.775 30.459 215.1 31.131 215.337 31.8901C215.574 32.6493 215.692 33.5079 215.692 34.4662Z" fill="#EEEDED"/>
</g>
<defs>
<clipPath id="clip0">
<rect width="217" height="60" fill="white"/>
</clipPath>
</defs>
</svg>
