<svg width="262" height="262" viewBox="0 0 262 262" fill="none" xmlns="http://www.w3.org/2000/svg">
<path d="M181.501 134.4C183.501 134.4 185.102 132.799 185.102 130.799C185.102 128.799 183.501 127.199 181.501 127.199C179.501 127.199 177.901 128.799 177.901 130.799C177.901 132.799 179.501 134.4 181.501 134.4ZM223.501 38.3C198.802 13.6 165.901 0 130.901 0C95.901 0 63.101 13.6 38.301 38.3C13.601 63 0 95.9 0 130.9C0 165.9 13.601 198.7 38.301 223.5C63 248.2 95.901 261.8 130.901 261.8C165.901 261.8 198.701 248.2 223.501 223.5C248.201 198.8 261.802 165.9 261.802 130.9C261.802 95.9 248.201 63 223.501 38.3ZM245.201 99.3L247.802 94.8C248.501 93.6 250.102 93.2 251.302 93.9C251.902 94.3 252.302 94.8 252.501 95.4C252.701 96 252.602 96.7 252.201 97.3L249.601 101.8C248.901 103 247.301 103.4 246.101 102.7C244.901 102 244.501 100.5 245.201 99.3ZM233.101 70.8L234.5 65.8C234.9 64.4 236.301 63.6 237.601 64C238.301 64.2 238.801 64.6 239.101 65.2C239.401 65.8 239.5 66.5 239.401 67.1L238.001 72.1C237.602 73.5 236.201 74.3 234.901 73.9C233.601 73.5 232.801 72.1 233.101 70.8ZM214.101 41.1C214.101 39.7 215.201 38.6 216.601 38.6C217.301 38.6 217.901 38.9 218.401 39.3C218.901 39.8 219.101 40.4 219.101 41.1V46.3C219.101 47.7 218 48.8 216.601 48.8C215.201 48.8 214.101 47.7 214.101 46.3V41.1ZM189.901 19.6C190.601 19.4 191.301 19.5 191.801 19.9C192.401 20.2 192.801 20.8 193 21.4L194.301 26.4C194.7 27.8 193.901 29.1 192.5 29.5C191.101 29.9 189.801 29.1 189.4 27.7L188.1 22.7C187.701 21.3 188.501 19.9 189.901 19.6ZM180.301 29.6C181.301 28.5 182.801 27.9 184.301 27.9C185.5 27.9 186.7 28.3 187.7 29.1C192.9 33.2 201 40.6 210.7 52.2C216.6 59.3 221.2 65.4 224.5 70.2C227.9 75.2 227.601 81.8 223.801 86.5C217.901 93.8 209.801 103.9 204.801 110.101C202.5 113 199 114.701 195.2 114.701C194.001 114.701 192.9 114.501 191.801 114.201C186.801 112.801 183.301 108.301 183 103.101L179.101 33.601C178.801 32.1 179.301 30.7 180.301 29.6ZM161.601 176.1C161.201 177.6 160.301 178.799 159 179.499C158.101 179.999 157.2 180.299 156.2 180.299C154.4 180.299 152.801 179.499 151.7 178.1C145.301 180.9 138.301 182.499 130.9 182.499C123.499 182.499 116.5 180.899 110.1 178.1C108.999 179.499 107.4 180.299 105.6 180.299C104.6 180.299 103.6 179.999 102.799 179.499C100.299 178.1 99.299 174.999 100.4 172.399C89 163.999 81.2 151.099 79.599 136.399C76.799 135.999 74.7 133.699 74.7 130.798C74.7 127.899 76.8 125.599 79.599 125.198C81.2 110.398 88.999 97.498 100.4 89.198C99.299 86.598 100.299 83.598 102.799 82.098C103.699 81.598 104.6 81.298 105.6 81.298C107.4 81.298 108.999 82.098 110.1 83.498C116.499 80.698 123.499 79.098 130.9 79.098C138.301 79.098 145.3 80.698 151.7 83.498C152.801 82.098 154.4 81.298 156.2 81.298C157.2 81.298 158.2 81.598 159 82.098C160.301 82.898 161.2 84.098 161.601 85.498C161.901 86.698 161.801 87.998 161.301 89.098C172.7 97.498 180.5 110.398 182.101 125.098C184.901 125.497 187 127.797 187 130.698C187 133.599 184.9 135.898 182.101 136.298C180.5 151.099 172.701 163.998 161.301 172.298C161.901 173.6 161.901 174.9 161.601 176.1ZM159.101 8.10001C159.701 7.80001 160.401 7.70002 161 7.80002C161.601 8.00002 162.2 8.4 162.5 9L165.101 13.5C165.801 14.7 165.401 16.3 164.201 17C163.001 17.7 161.401 17.3 160.701 16.1L158.101 11.6C157.401 10.3 157.801 8.80001 159.101 8.10001ZM126.301 5C126.801 4.5 127.401 4.30002 128.101 4.30002C128.801 4.30002 129.401 4.5 129.901 5L133.601 8.70001C134.601 9.70001 134.601 11.3 133.601 12.3C132.601 13.3 131 13.3 130 12.3L126.301 8.60001C125.301 7.60001 125.301 6 126.301 5ZM104.101 19.8C104.901 17.8 106.801 16.5 109 16.5C109.801 16.5 110.7 16.5 111.7 16.5C120.7 16.5 130.7 17.5 141.5 19.5C150.601 21.2 158 22.8 163.601 24.5C169.401 26.2 173.401 31.4 173.5 37.4C173.7 46.8 173.9 59.7 174.101 67.7C174.201 72.7 171.301 77.2 166.801 79.2C165.2 79.9 163.601 80.2 161.801 80.2C158.401 80.2 155.2 78.8 152.901 76.3L105.201 25.6C103.701 24 103.301 21.8 104.101 19.8ZM93.901 10.5C94.301 9.9 94.801 9.50002 95.401 9.30002C96.001 9.10002 96.701 9.20001 97.301 9.60001L101.801 12.2C103 12.9 103.401 14.5 102.7 15.7C101.999 16.9 100.4 17.3 99.2 16.6L94.7 14C93.601 13.2 93.201 11.7 93.901 10.5ZM93.001 27.1C97.001 27.1 100.802 28.8 103.401 31.8C109.601 38.9 118.101 48.6 123.401 54.7C126.701 58.4 127.401 63.7 125.201 68.2C123.201 72.4 118.802 75.1 114.201 75.1C113.701 75.1 113.201 75.1 112.802 75L43.6021 66.8C41.5011 66.5 39.7021 65.1 39.1021 63C38.5011 60.9 39.102 58.8 40.702 57.3C45.702 52.9 54.303 46.1 67.502 38.7C75.502 34.1 82.303 30.6 87.603 28.3C89.201 27.5 91.101 27.1 93.001 27.1ZM64.001 24.1C64.201 23.4 64.602 22.9 65.201 22.6C65.802 22.3 66.501 22.2 67.101 22.3L72.101 23.7C73.5 24.1 74.301 25.5 73.901 26.8C73.501 28.2 72.101 29 70.801 28.6L65.801 27.2C64.501 26.9 63.701 25.5 64.001 24.1ZM39.401 43.3C39.901 42.8 40.501 42.6 41.201 42.6H46.401C47.801 42.6 48.901 43.7 48.901 45.1C48.901 46.5 47.801 47.6 46.401 47.6H41.201C39.802 47.6 38.701 46.5 38.701 45.1C38.701 44.4 39.001 43.8 39.401 43.3ZM19.901 70C20.201 69.4 20.801 69 21.401 68.8L26.401 67.5C27.801 67.1 29.101 67.9 29.501 69.3C29.901 70.7 29.102 72 27.701 72.4L22.701 73.7C21.302 74.1 20.001 73.3 19.601 71.9C19.501 71.2 19.601 70.5 19.901 70ZM7.901 100.8C8.101 100.2 8.50095 99.6 9.10095 99.3L13.601 96.7C14.801 96 16.401 96.4 17.101 97.6C17.801 98.8 17.401 100.4 16.201 101.1L11.701 103.7C10.501 104.4 8.90105 104 8.20105 102.8C7.80105 102.1 7.701 101.4 7.901 100.8ZM5.10095 135.4C4.60095 134.9 4.401 134.299 4.401 133.6C4.401 132.9 4.60095 132.299 5.10095 131.799L8.80103 128.1C9.80103 127.1 11.401 127.1 12.401 128.1C13.401 129.1 13.401 130.7 12.401 131.7L8.70105 135.4C7.70105 136.4 6.00095 136.4 5.10095 135.4ZM16.601 162.4L14 166.9C13.301 168.1 11.7 168.5 10.5 167.799C9.9 167.4 9.50003 166.9 9.30103 166.299C9.10103 165.699 9.19995 164.999 9.60095 164.4L12.201 159.9C12.901 158.7 14.501 158.299 15.701 159C16.901 159.6 17.301 161.2 16.601 162.4ZM15.701 136.9C14.701 135.7 14.201 134.2 14.501 132.6C15.501 126.1 17.802 115.299 23.001 101.1C26.201 92.5 29.102 85.4 31.701 80.2C34.001 75.5 38.802 72.5 44.001 72.5C44.701 72.5 45.4011 72.6 46.1021 72.7C53.7021 73.9 67.7021 76.1 76.1021 77.4C81.0011 78.2 84.9021 81.8 86.1021 86.6C87.3021 91.6 85.302 96.9 80.902 99.8L22.6021 138C21.7021 138.601 20.702 138.9 19.702 138.9C18.201 138.8 16.701 138.1 15.701 136.9ZM28.701 190.9L27.302 195.9C26.902 197.299 25.501 198.1 24.201 197.7C23.501 197.5 23.001 197.1 22.701 196.5C22.401 195.9 22.302 195.2 22.401 194.601L23.801 189.601C24.2 188.201 25.601 187.401 26.901 187.8C28.201 188.2 29.001 189.6 28.701 190.9ZM47.701 220.5C47.701 221.9 46.601 223 45.201 223C44.501 223 43.901 222.7 43.401 222.3C42.901 221.8 42.701 221.2 42.701 220.5V215.3C42.701 213.901 43.802 212.8 45.201 212.8C46.601 212.8 47.701 213.901 47.701 215.3V220.5ZM47.401 209.7C45.501 209.7 43.801 208.7 42.801 207.1C39.401 201.499 34.2 191.7 29.101 177.499C26 168.799 23.701 161.499 22.301 155.899C20.901 149.999 23.401 143.999 28.601 140.899C35.101 136.999 47.201 129.699 54.601 125.199C56.5 123.999 58.701 123.399 61 123.399C63.601 123.399 66.101 124.199 68.2 125.798C72.4 128.899 74.2 134.298 72.7 139.198L52.6 205.898C51.901 208.1 49.801 209.7 47.401 209.7ZM71.901 242.1C71.201 242.299 70.501 242.2 70.001 241.799C69.401 241.499 69.001 240.9 68.802 240.299L67.501 235.299C67.102 233.9 67.901 232.6 69.302 232.199C70.701 231.799 72.001 232.599 72.402 233.999L73.702 238.999C74.101 240.4 73.301 241.8 71.901 242.1ZM102.801 253.6C102.2 253.9 101.5 253.999 100.901 253.9C100.301 253.7 99.701 253.299 99.401 252.7L96.801 248.2C96.101 247 96.5 245.4 97.7 244.7C98.9 244 100.5 244.4 101.2 245.6L103.801 250.1C104.401 251.3 104.001 252.9 102.801 253.6ZM118.701 243.7C117.701 245.2 116.001 246.2 114.201 246.2C113.601 246.2 113.001 246.1 112.401 245.9C106.101 243.799 95.901 239.7 82.901 232C74.901 227.3 68.501 223.2 63.801 219.8C58.901 216.2 57 210 58.901 204.3C61.401 197 66.001 183.7 68.701 175.601C70.302 170.901 74.501 167.601 79.501 167.3C84.701 166.901 89.6021 169.901 91.6021 174.7L119.102 238.7C119.801 240.3 119.701 242.2 118.701 243.7ZM135.501 256.7C135.001 257.2 134.401 257.4 133.701 257.4C133.001 257.4 132.401 257.2 131.901 256.7L128.201 253C127.201 252 127.201 250.4 128.201 249.4C129.201 248.4 130.802 248.4 131.802 249.4L135.501 253.1C136.501 254.1 136.501 255.7 135.501 256.7ZM135.701 242.1C130.101 242.1 124.901 238.6 122.901 233.299C120.101 226.1 115.001 212.9 112.001 204.999C110.201 200.399 111.401 195.199 114.901 191.699C117.201 189.499 120.201 188.299 123.401 188.299C125.301 188.299 127.201 188.799 128.901 189.6L191.101 220.999C193 221.999 194.201 223.899 194.101 226.1C194 228.299 192.701 230.1 190.701 230.9C184.501 233.299 174.101 236.7 159.201 239.299C150.101 240.799 142.501 241.799 136.701 242.199C136.301 242.1 136.001 242.1 135.701 242.1ZM167.901 251.2C167.501 251.8 167.001 252.2 166.401 252.4C165.801 252.6 165.101 252.5 164.501 252.1L160.001 249.499C158.802 248.799 158.401 247.199 159.102 245.999C159.803 244.799 161.402 244.399 162.602 245.1L167.102 247.7C168.201 248.4 168.601 250 167.901 251.2ZM197.801 237.5C197.601 238.2 197.2 238.7 196.601 239C196 239.3 195.301 239.4 194.701 239.3L189.701 237.901C188.302 237.501 187.501 236.101 187.901 234.8C188.301 233.401 189.701 232.601 191.001 233L196.001 234.4C197.401 234.8 198.201 236.2 197.801 237.5ZM222.401 218.4C221.901 218.9 221.301 219.1 220.601 219.1H215.401C214.001 219.1 212.901 217.999 212.901 216.6C212.901 215.2 214.001 214.1 215.401 214.1H220.601C222 214.1 223.101 215.2 223.101 216.6C223.101 217.3 222.801 217.9 222.401 218.4ZM222.201 195.7C216.201 202.7 211.101 208.3 206.901 212.4C204.301 214.9 201.001 216.2 197.401 216.2C195.101 216.2 192.801 215.6 190.701 214.5C182.401 209.9 171.101 203.7 164.101 199.8C159.701 197.401 157.301 192.7 157.801 187.7C158.401 182.5 162.101 178.3 167.2 177.1L235 161.1C235.4 160.999 235.9 160.999 236.301 160.999C238.2 160.999 239.901 161.999 240.901 163.699C241.901 165.299 241.901 167.299 241.001 168.999C237.801 174.8 232.001 184.1 222.201 195.7ZM241.901 191.7C241.601 192.3 241.001 192.7 240.401 192.9L235.401 194.2C234.001 194.6 232.701 193.8 232.301 192.4C231.901 191 232.7 189.7 234.101 189.299L239.101 187.999C240.5 187.6 241.801 188.399 242.201 189.799C242.401 190.5 242.301 191.2 241.901 191.7ZM241.501 144.5C240.802 150.5 236.401 155.3 230.501 156.5C221.201 158.3 208.501 160.8 200.701 162.4C199.901 162.6 199.101 162.6 198.302 162.6C194.201 162.6 190.402 160.6 188.102 157.2C185.202 152.9 185.302 147.2 188.501 143L230.201 87.2C231.201 85.8 232.802 85 234.501 85C237.102 85 239.302 86.8 239.802 89.3C241.102 95.8 242.602 106.7 242.501 121.8C242.401 131.1 242.101 138.7 241.501 144.5ZM253.901 160.9C253.701 161.5 253.301 162.1 252.701 162.4L248.201 165C247.001 165.7 245.401 165.3 244.701 164.101C244.001 162.901 244.401 161.3 245.601 160.601L250.101 158C251.301 157.3 252.901 157.7 253.601 158.9C254.001 159.6 254.101 160.3 253.901 160.9ZM253.101 133.5C252.101 134.5 250.5 134.5 249.5 133.5C248.5 132.5 248.5 130.9 249.5 129.9L253.2 126.2C254.2 125.2 255.801 125.2 256.801 126.2C257.301 126.7 257.5 127.3 257.5 128C257.5 128.7 257.301 129.3 256.801 129.8L253.101 133.5ZM154.401 90.2C154.901 90.5 155.601 90.7 156.201 90.7C157.501 90.7 158.701 90 159.302 88.9C160.302 87.2 159.701 85 158.001 84C157.501 83.7 156.802 83.5 156.201 83.5C154.901 83.5 153.701 84.2 153.101 85.3C152.101 87 152.701 89.2 154.401 90.2ZM175.801 130.8C175.801 129 176.601 127.401 178 126.401L159.601 121.2C159.301 121.1 159 120.9 158.901 120.6C157.701 117.4 156.001 114.4 153.801 111.799C153.601 111.499 153.5 111.199 153.601 110.9L158.301 92.3C157.601 92.6 156.901 92.7 156.2 92.7C155.2 92.7 154.2 92.4 153.4 91.9C151.8 91 150.9 89.5 150.7 87.8L136.901 101.2C136.701 101.4 136.301 101.5 136.001 101.5C132.602 100.9 129.201 100.9 125.901 101.5C125.601 101.6 125.201 101.5 125.001 101.2L111.302 87.9C111.102 89.5 110.102 91.1 108.602 92C107.702 92.5 106.802 92.8 105.802 92.8C105.102 92.8 104.402 92.7 103.701 92.4L108.401 111C108.501 111.3 108.401 111.7 108.201 111.9C106.001 114.5 104.302 117.5 103.101 120.7C103 121 102.701 121.2 102.401 121.3L84.001 126.5C85.302 127.5 86.201 129.101 86.201 130.9C86.201 132.699 85.401 134.299 84.001 135.299L102.401 140.499C102.701 140.6 103.001 140.799 103.101 141.1C104.301 144.299 106 147.299 108.201 149.9C108.401 150.2 108.501 150.5 108.401 150.799L103.701 169.4C104.401 169.1 105.101 169 105.802 169C106.802 169 107.802 169.3 108.602 169.8C110.202 170.7 111.102 172.2 111.302 173.901L125.001 160.601C125.201 160.401 125.602 160.3 125.901 160.3C129.301 160.901 132.701 160.901 136.001 160.3C136.302 160.2 136.701 160.3 136.901 160.601L150.601 173.901C150.801 172.3 151.801 170.701 153.301 169.8C154.2 169.3 155.101 169 156.101 169C156.801 169 157.5 169.101 158.201 169.4L153.501 150.799C153.401 150.499 153.501 150.1 153.701 149.9C155.901 147.299 157.601 144.299 158.802 141.1C158.902 140.799 159.201 140.6 159.501 140.499L177.901 135.299C176.701 134.2 175.801 132.6 175.801 130.8ZM105.601 90.6C106.201 90.6 106.801 90.4 107.401 90.1C109.101 89.1 109.701 86.9 108.701 85.2C108.101 84.1 106.901 83.4 105.601 83.4C105 83.4 104.401 83.6 103.801 83.9C103 84.4 102.401 85.1 102.101 86.1C101.801 87.1 102 88 102.5 88.8C103.201 89.9 104.401 90.6 105.601 90.6ZM156.201 171C155.601 171 155.001 171.2 154.401 171.5C152.701 172.5 152.101 174.7 153.101 176.4C153.701 177.5 154.901 178.2 156.201 178.2C156.802 178.2 157.401 178 158.001 177.7C159.701 176.7 160.302 174.5 159.302 172.8C158.601 171.7 157.501 171 156.201 171ZM107.401 171.5C106.901 171.2 106.201 171 105.601 171C104.301 171 103.101 171.7 102.5 172.8C102 173.601 101.9 174.601 102.101 175.5C102.301 176.4 102.901 177.2 103.801 177.7C104.301 178 105 178.2 105.601 178.2C106.901 178.2 108.101 177.5 108.701 176.4C109.701 174.7 109.101 172.5 107.401 171.5ZM80.401 127.3C78.401 127.3 76.801 128.901 76.801 130.901C76.801 132.901 78.401 134.501 80.401 134.501C82.401 134.501 84.001 132.901 84.001 130.901C84.001 128.901 82.301 127.3 80.401 127.3Z" fill="#EA3A3A"/>
</svg>
